# xmcd
# Track frame offsets:
# 150
# 11481
# 25643
# 37804
# 51276
# 67399
# 78573
# 88934
# 103002
# 117158
# 132254
# 148330
# 160811
#
# Disc length: 2355 seconds
# Revision: 0
# Processed by: cddbd v1.5.1PL0 Copyright (c) Steve Scherf et al.
# Submitted via: VisiTrax 2.9.10.228 - For more info visit www.synapsa.com
#
DISCID=b109310d
DTITLE=WENCHE - Country From My Heart
DYEAR=2004
DGENRE=
TTITLE0=Oh' Lonesome Me
TTITLE1=Rose Garden
TTITLE2=Stand By Your Man
TTITLE3=Jambalaja
TTITLE4=Nobody's Child
TTITLE5=Seven lonely Days
TTITLE6=You Ain't Woman Enough To Take My Man
TTITLE7=Cryin Time
TTITLE8=Let Me Be There
TTITLE9=Banks Of the Ohio
TTITLE10=Smowbird
TTITLE11=To Know Him Is to Love Him
TTITLE12=Top Of The World
EXTD=
EXTT0=
EXTT1=
EXTT2=
EXTT3=
EXTT4=
EXTT5=
EXTT6=
EXTT7=
EXTT8=
EXTT9=
EXTT10=
EXTT11=
EXTT12=
PLAYORDER=
